<svg width="0" height="0" class="hidden">
  <symbol version="1.1" id="icon-instagram" xmlns="http://www.w3.org/2000/svg" xmlns:xlink="http://www.w3.org/1999/xlink" x="0px" y="0px" enable-background="new 0 0 56.7 56.7" xml:space="preserve" viewBox="0 0 56.7 56.7">
    <g>
      <path d="M28.2,16.7c-7,0-12.8,5.7-12.8,12.8s5.7,12.8,12.8,12.8S41,36.5,41,29.5S35.2,16.7,28.2,16.7z M28.2,37.7
		c-4.5,0-8.2-3.7-8.2-8.2s3.7-8.2,8.2-8.2s8.2,3.7,8.2,8.2S32.7,37.7,28.2,37.7z"></path>
      <circle cx="41.5" cy="16.4" r="2.9"></circle>
      <path d="M49,8.9c-2.6-2.7-6.3-4.1-10.5-4.1H17.9c-8.7,0-14.5,5.8-14.5,14.5v20.5c0,4.3,1.4,8,4.2,10.7c2.7,2.6,6.3,3.9,10.4,3.9
		h20.4c4.3,0,7.9-1.4,10.5-3.9c2.7-2.6,4.1-6.3,4.1-10.6V19.3C53,15.1,51.6,11.5,49,8.9z M48.6,39.9c0,3.1-1.1,5.6-2.9,7.3
		s-4.3,2.6-7.3,2.6H18c-3,0-5.5-0.9-7.3-2.6C8.9,45.4,8,42.9,8,39.8V19.3c0-3,0.9-5.5,2.7-7.3c1.7-1.7,4.3-2.6,7.3-2.6h20.6
		c3,0,5.5,0.9,7.3,2.7c1.7,1.8,2.7,4.3,2.7,7.2V39.9L48.6,39.9z"></path>
    </g>
  </symbol>
  <symbol xmlns="http://www.w3.org/2000/svg" viewBox="0 0 50 50" id="icon-linkedin">
    <path d="M41,4H9C6.24,4,4,6.24,4,9v32c0,2.76,2.24,5,5,5h32c2.76,0,5-2.24,5-5V9C46,6.24,43.76,4,41,4z M17,20v19h-6V20H17z M11,14.47c0-1.4,1.2-2.47,3-2.47s2.93,1.07,3,2.47c0,1.4-1.12,2.53-3,2.53C12.2,17,11,15.87,11,14.47z M39,39h-6c0,0,0-9.26,0-10 c0-2-1-4-3.5-4.04h-0.08C27,24.96,26,27.02,26,29c0,0.91,0,10,0,10h-6V20h6v2.56c0,0,1.93-2.56,5.81-2.56 c3.97,0,7.19,2.73,7.19,8.26V39z"></path>
  </symbol>
  <symbol version="1.1" xml:space="preserve" xmlns="http://www.w3.org/2000/svg" xmlnsSerif="http://www.serif.com/" xmlns:xlink="http://www.w3.org/1999/xlink" viewBox="0 0 512 512" id="icon-twitter">
    <path d="M161.014,464.013c193.208,0 298.885,-160.071 298.885,-298.885c0,-4.546 0,-9.072 -0.307,-13.578c20.558,-14.871 38.305,-33.282 52.408,-54.374c-19.171,8.495 -39.51,14.065 -60.334,16.527c21.924,-13.124 38.343,-33.782 46.182,-58.102c-20.619,12.235 -43.18,20.859 -66.703,25.498c-19.862,-21.121 -47.602,-33.112 -76.593,-33.112c-57.682,0 -105.145,47.464 -105.145,105.144c0,8.002 0.914,15.979 2.722,23.773c-84.418,-4.231 -163.18,-44.161 -216.494,-109.752c-27.724,47.726 -13.379,109.576 32.522,140.226c-16.715,-0.495 -33.071,-5.005 -47.677,-13.148l0,1.331c0.014,49.814 35.447,93.111 84.275,102.974c-15.464,4.217 -31.693,4.833 -47.431,1.802c13.727,42.685 53.311,72.108 98.14,72.95c-37.19,29.227 -83.157,45.103 -130.458,45.056c-8.358,-0.016 -16.708,-0.522 -25.006,-1.516c48.034,30.825 103.94,47.18 161.014,47.104"></path>
  </symbol>
  <symbol role="img" xmlns="http://www.w3.org/2000/svg" viewBox="0 0 24 24" id="icon-facebook">
    <title></title>
    <path d="M22.676 0H1.324C.593 0 0 .593 0 1.324v21.352C0 23.408.593 24 1.324 24h11.494v-9.294H9.689v-3.621h3.129V8.41c0-3.099 1.894-4.785 4.659-4.785 1.325 0 2.464.097 2.796.141v3.24h-1.921c-1.5 0-1.792.721-1.792 1.771v2.311h3.584l-.465 3.63H16.56V24h6.115c.733 0 1.325-.592 1.325-1.324V1.324C24 .593 23.408 0 22.676 0"></path>
  </symbol>
</svg>